<svg xmlns="http://www.w3.org/2000/svg"><symbol viewBox="0 0 24 25" id="facebook"><g clip-path="url(#f)"><path d="M24 12.573C24 5.905 18.627.5 12 .5S0 5.905 0 12.573C0 18.6 4.388 23.594 10.125 24.5v-8.437H7.078v-3.49h3.047v-2.66c0-3.025 1.791-4.697 4.533-4.697 1.313 0 2.686.236 2.686.236v2.971H15.83c-1.491 0-1.956.93-1.956 1.886v2.264h3.328l-.532 3.49h-2.796V24.5C19.612 23.594 24 18.6 24 12.573z"/></g><defs><clipPath id="f"><path d="M0 .5h24v24H0z"/></clipPath></defs></symbol><symbol viewBox="0 0 39 38" id="facebook-footer"><g clip-path="url(#clip0_129925_2850)"><path d="M38.5 19.116C38.5 8.56 29.993 0 19.5 0S.5 8.559.5 19.116C.5 28.657 7.448 36.566 16.531 38V24.642h-4.824v-5.526h4.824v-4.211c0-4.791 2.837-7.438 7.177-7.438 2.079 0 4.253.374 4.253.374v4.704h-2.396c-2.36 0-3.096 1.473-3.096 2.985v3.586h5.27l-.843 5.526h-4.427V38C31.552 36.566 38.5 28.657 38.5 19.116z" fill="#24A3FF"/></g></symbol><symbol id="slash" viewBox="0 0 12 26" fill="none"><path fill-rule="evenodd" clip-rule="evenodd" d="M8.728 0h3.223L3.556 26H.333L8.728 0z" fill="#F0145A"/></symbol></svg>