<svg xmlns="http://www.w3.org/2000/svg">
		<symbol viewBox="0 0 24 25" id="facebook">
			<g clip-path="url(#f)">
				<path d="M24 12.573C24 5.905 18.627.5 12 .5S0 5.905 0 12.573C0 18.6 4.388 23.594 10.125 24.5v-8.437H7.078v-3.49h3.047v-2.66c0-3.025 1.791-4.697 4.533-4.697 1.313 0 2.686.236 2.686.236v2.971H15.83c-1.491 0-1.956.93-1.956 1.886v2.264h3.328l-.532 3.49h-2.796V24.5C19.612 23.594 24 18.6 24 12.573Z"/>
			</g>
			<defs>
				<clipPath id="f">
					<path d="M0 .5h24v24H0z"/>
				</clipPath>
			</defs>
		</symbol>

		<symbol  viewBox="0 0 39 38" id='facebook-footer'>
		<g clip-path="url(#clip0_129925_2850)">
			<path d="M38.5 19.1161C38.5 8.55857 29.9934 0 19.5 0C9.00658 0 0.5 8.55857 0.5 19.1161C0.5 28.6575 7.44803 36.5659 16.5312 38V24.6419H11.707V19.1161H16.5312V14.9046C16.5312 10.1136 19.3678 7.46723 23.7078 7.46723C25.7866 7.46723 27.9609 7.84059 27.9609 7.84059V12.545H25.5651C23.2048 12.545 22.4688 14.0185 22.4688 15.5302V19.1161H27.7383L26.8959 24.6419H22.4688V38C31.552 36.5659 38.5 28.6575 38.5 19.1161Z" fill="#24A3FF"/>
			</g>
		</symbol>

		<symbol id='slash' viewBox="0 0 12 26" fill="none">
			<path fill-rule="evenodd" clip-rule="evenodd" d="M8.72827 0H11.9505L3.55574 26H0.333496L8.72827 0Z" fill="#F0145A"/>
		</symbol>

	</svg>